<?xml version="1.0" standalone="no"?>
<!DOCTYPE svg PUBLIC "-//W3C//DTD SVG 20010904//EN"
 "http://www.w3.org/TR/2001/REC-SVG-20010904/DTD/svg10.dtd">
<svg version="1.0" xmlns="http://www.w3.org/2000/svg"
 width="247.000000pt" height="247.000000pt" viewBox="0 0 247.000000 247.000000"
 preserveAspectRatio="xMidYMid meet">
<metadata>
Created by potrace 1.11, written by Peter Selinger 2001-2013
</metadata>
<g transform="translate(0.000000,247.000000) scale(0.100000,-0.100000)"
fill="#000000" stroke="none">
<path d="M1089 2460 c-205 -24 -413 -106 -589 -233 -83 -60 -229 -213 -288
-302 -274 -412 -281 -930 -20 -1352 66 -107 242 -290 348 -360 135 -90 276
-150 445 -189 113 -26 387 -26 500 0 257 60 441 160 621 340 194 193 309 420
351 691 19 125 12 323 -16 446 -108 476 -484 845 -961 943 -95 19 -292 27
-391 16z m448 -797 c161 -128 301 -238 311 -244 16 -10 27 -8 65 13 l45 26
177 -146 178 -146 -7 -70 c-4 -38 -8 -72 -10 -74 -2 -2 -243 134 -535 303
l-532 305 -530 -305 c-292 -169 -532 -305 -534 -303 -2 2 -6 35 -10 74 l-7 71
178 145 179 145 46 -25 46 -26 314 251 c173 138 319 248 324 245 6 -4 141
-111 302 -239z m-387 -448 c0 -91 -3 -165 -6 -165 -14 0 -293 164 -288 169 13
13 270 159 282 160 9 1 12 -38 12 -164z m319 83 c78 -44 140 -82 139 -83 -10
-8 -288 -165 -293 -165 -3 0 -5 74 -5 165 0 91 4 165 9 165 5 0 72 -37 150
-82z m-631 -255 l137 -78 -143 -3 c-78 -1 -205 -1 -282 0 l-139 3 132 77 c73
42 138 77 146 78 7 0 74 -35 149 -77z m1064 6 c67 -39 127 -75 133 -80 5 -5
-99 -9 -270 -9 -163 0 -275 4 -270 9 18 16 260 151 272 151 6 0 67 -32 135
-71z m312 -271 c-13 -43 -85 -158 -146 -234 -71 -89 -151 -157 -273 -233 l-86
-54 -24 23 c-34 32 -32 39 15 46 l40 7 -52 56 -53 56 28 3 c15 2 27 5 27 8 0
3 -18 27 -40 55 -22 28 -40 55 -40 60 0 20 -16 7 -34 -25 -10 -19 -29 -45 -42
-57 -31 -29 -30 -39 1 -39 14 0 25 -3 25 -7 0 -4 -23 -31 -51 -59 l-51 -51 47
-8 48 -7 -52 -52 c-28 -28 -51 -55 -51 -59 0 -4 11 -7 25 -7 40 0 29 -18 -17
-25 -40 -7 -43 -6 -85 38 -24 25 -43 50 -43 56 0 6 17 13 38 17 20 4 41 9 46
12 4 2 -20 33 -55 68 l-63 64 34 1 c73 1 75 10 15 69 -60 59 -65 70 -36 70 34
0 32 17 -5 61 -19 23 -45 61 -56 83 l-21 40 -19 -41 c-10 -22 -35 -60 -55 -83
-36 -42 -36 -54 2 -62 17 -4 12 -13 -38 -63 -31 -32 -55 -60 -53 -63 3 -2 26
-7 51 -10 l47 -5 -62 -62 c-34 -34 -58 -65 -54 -67 5 -3 26 -8 47 -12 20 -4
37 -11 37 -15 0 -5 -19 -30 -43 -56 -42 -47 -42 -47 -89 -40 -49 7 -57 25 -12
25 13 0 24 2 24 4 0 3 -23 29 -52 58 l-52 53 42 9 c23 5 42 12 42 15 0 4 -20
27 -45 51 -25 24 -45 48 -45 52 0 4 11 8 25 8 31 0 32 11 4 36 -12 10 -33 36
-46 58 l-25 38 -34 -50 c-18 -28 -38 -53 -44 -57 -18 -11 -11 -24 17 -27 26
-3 26 -3 -26 -60 l-51 -56 40 -7 c22 -4 40 -10 40 -14 0 -4 -11 -18 -25 -31
l-24 -23 -73 44 -73 43 35 9 c19 5 40 11 47 12 6 2 -9 25 -35 50 -49 49 -47
65 7 65 22 0 20 4 -25 52 -46 50 -47 52 -26 61 l21 10 -28 36 c-16 20 -37 54
-48 75 l-20 40 -16 -31 c-9 -17 -32 -51 -51 -76 -33 -43 -34 -46 -16 -52 27
-8 25 -16 -9 -49 l-29 -28 -46 59 c-40 50 -126 199 -126 217 0 3 446 6 991 6
l990 0 -7 -22z"/>
</g>
</svg>
